<svg xmlns="http://www.w3.org/2000/svg"  viewBox="0 0 48 48" width="96px" height="96px"><path d="M 33.074219 3.0019531 C 29.397084 2.9823621 25.710658 4.6415231 23.275391 7.9609375 C 21.100546 10.924667 20.560673 14.686374 21.476562 18.109375 L 3.3144531 36.271484 C 1.7605431 37.825394 1.7605431 40.375777 3.3144531 41.929688 L 6.0703125 44.685547 C 7.6242226 46.239457 10.174606 46.239457 11.728516 44.685547 L 29.904297 26.509766 C 33.907839 27.582501 38.345062 26.623688 41.484375 23.484375 C 44.780249 20.18959 45.759165 15.449389 44.416016 11.298828 A 1.0001 1.0001 0 0 0 42.757812 10.898438 L 37.232422 16.423828 C 36.286373 17.369877 34.785892 17.369877 33.839844 16.423828 L 31.576172 14.160156 C 30.630301 13.214285 30.630732 11.712306 31.576172 10.767578 L 37.101562 5.2402344 A 1.0001 1.0001 0 0 0 36.701172 3.5820312 C 35.5245 3.2018087 34.29993 3.0084833 33.074219 3.0019531 z M 33.068359 4.9980469 C 33.489374 5.0014569 33.896363 5.1430674 34.314453 5.1992188 L 30.162109 9.3535156 C 28.451549 11.062788 28.451981 13.86409 30.162109 15.574219 L 32.425781 17.837891 C 34.135733 19.547842 36.936533 19.547842 38.646484 17.837891 L 42.828125 13.65625 C 43.236188 16.642496 42.376483 19.764906 40.070312 22.070312 C 37.302619 24.838007 33.345989 25.629516 29.875 24.488281 A 1.0001 1.0001 0 0 0 28.855469 24.730469 L 10.314453 43.271484 C 9.5243633 44.061574 8.2744649 44.061574 7.484375 43.271484 L 4.7285156 40.515625 C 3.9384257 39.725535 3.9384257 38.475637 4.7285156 37.685547 L 23.265625 19.148438 A 1.0001 1.0001 0 0 0 23.507812 18.130859 C 22.530917 15.141048 22.978214 11.74531 24.886719 9.1445312 C 26.942451 6.3424457 30.009556 4.9732937 33.068359 4.9980469 z M 22.980469 23.990234 A 1.0001 1.0001 0 0 0 22.292969 24.292969 L 8.2929688 38.292969 A 1.0001 1.0001 0 1 0 9.7070312 39.707031 L 23.707031 25.707031 A 1.0001 1.0001 0 0 0 22.980469 23.990234 z"/></svg>